<svg width="125" height="47" viewBox="0 0 125 47" fill="none" xmlns="http://www.w3.org/2000/svg">
<path d="M58.75 16.75C58.75 15.6454 59.5791 14.75 60.6019 14.75H69.3981C70.4209 14.75 71.25 15.6454 71.25 16.75V23.25C71.25 24.3546 70.4209 25.25 69.3981 25.25H60.6019C59.5791 25.25 58.75 24.3546 58.75 23.25V16.75Z" fill="#E4E6F1" stroke="#160042" stroke-width="1.5"/>
<path d="M71.25 18.5L75.25 16V24L71.25 21.75" stroke="#160042" stroke-width="1.5" stroke-linecap="round" stroke-linejoin="round"/>
<path d="M68.25 23C68.6642 23 69 22.6642 69 22.25C69 21.8358 68.6642 21.5 68.25 21.5V23ZM61.75 21.5C61.3358 21.5 61 21.8358 61 22.25C61 22.6642 61.3358 23 61.75 23V21.5ZM68.25 21.5H61.75V23H68.25V21.5Z" fill="#160042"/>
<path d="M61.76 18.5C62.1742 18.5 62.51 18.1642 62.51 17.75C62.51 17.3358 62.1742 17 61.76 17V18.5ZM61.75 17C61.3358 17 61 17.3358 61 17.75C61 18.1642 61.3358 18.5 61.75 18.5V17ZM61.76 17H61.75V18.5H61.76V17Z" fill="#160042"/>
<path d="M32.6731 44C32.5291 44 32.4091 43.952 32.3131 43.856C32.2171 43.76 32.1691 43.644 32.1691 43.508V36.092H33.1891V43.508C33.1891 43.644 33.1411 43.76 33.0451 43.856C32.9491 43.952 32.8251 44 32.6731 44ZM29.8891 36.512C29.7531 36.512 29.6371 36.472 29.5411 36.392C29.4531 36.304 29.4091 36.192 29.4091 36.056C29.4091 35.92 29.4531 35.812 29.5411 35.732C29.6371 35.644 29.7531 35.6 29.8891 35.6H35.4691C35.6051 35.6 35.7211 35.644 35.8171 35.732C35.9131 35.812 35.9611 35.92 35.9611 36.056C35.9611 36.2 35.9131 36.312 35.8171 36.392C35.7211 36.472 35.6051 36.512 35.4691 36.512H29.8891ZM36.7622 44C36.6262 44 36.5102 43.952 36.4142 43.856C36.3262 43.76 36.2822 43.644 36.2822 43.508V38.276C36.2822 38.14 36.3262 38.028 36.4142 37.94C36.5102 37.844 36.6262 37.796 36.7622 37.796C36.9062 37.796 37.0222 37.844 37.1102 37.94C37.1982 38.028 37.2422 38.14 37.2422 38.276V39.86L37.0982 39.608C37.1462 39.36 37.2302 39.12 37.3502 38.888C37.4782 38.648 37.6382 38.436 37.8302 38.252C38.0222 38.06 38.2422 37.912 38.4902 37.808C38.7382 37.696 39.0102 37.64 39.3062 37.64C39.4822 37.64 39.6422 37.684 39.7862 37.772C39.9382 37.852 40.0142 37.968 40.0142 38.12C40.0142 38.288 39.9702 38.412 39.8822 38.492C39.7942 38.572 39.6942 38.612 39.5822 38.612C39.4782 38.612 39.3782 38.592 39.2822 38.552C39.1862 38.504 39.0662 38.48 38.9222 38.48C38.7222 38.48 38.5222 38.536 38.3222 38.648C38.1302 38.752 37.9502 38.904 37.7822 39.104C37.6222 39.304 37.4902 39.532 37.3862 39.788C37.2902 40.036 37.2422 40.304 37.2422 40.592V43.508C37.2422 43.644 37.1942 43.76 37.0982 43.856C37.0102 43.952 36.8982 44 36.7622 44ZM45.83 37.736C45.966 37.736 46.078 37.784 46.166 37.88C46.262 37.968 46.31 38.08 46.31 38.216V43.508C46.31 43.644 46.262 43.76 46.166 43.856C46.078 43.952 45.966 44 45.83 44C45.686 44 45.57 43.952 45.482 43.856C45.394 43.76 45.35 43.644 45.35 43.508V42.368L45.578 42.344C45.578 42.52 45.518 42.712 45.398 42.92C45.278 43.128 45.114 43.324 44.906 43.508C44.698 43.684 44.45 43.832 44.162 43.952C43.882 44.064 43.578 44.12 43.25 44.12C42.706 44.12 42.218 43.98 41.786 43.7C41.354 43.412 41.01 43.024 40.754 42.536C40.506 42.048 40.382 41.492 40.382 40.868C40.382 40.236 40.506 39.68 40.754 39.2C41.01 38.712 41.354 38.332 41.786 38.06C42.218 37.78 42.698 37.64 43.226 37.64C43.57 37.64 43.89 37.696 44.186 37.808C44.482 37.92 44.738 38.072 44.954 38.264C45.178 38.456 45.35 38.668 45.47 38.9C45.598 39.132 45.662 39.364 45.662 39.596L45.35 39.524V38.216C45.35 38.08 45.394 37.968 45.482 37.88C45.57 37.784 45.686 37.736 45.83 37.736ZM43.358 43.232C43.758 43.232 44.11 43.128 44.414 42.92C44.726 42.712 44.966 42.432 45.134 42.08C45.31 41.72 45.398 41.316 45.398 40.868C45.398 40.428 45.31 40.032 45.134 39.68C44.966 39.32 44.726 39.04 44.414 38.84C44.11 38.632 43.758 38.528 43.358 38.528C42.966 38.528 42.614 38.628 42.302 38.828C41.998 39.028 41.758 39.304 41.582 39.656C41.406 40.008 41.318 40.412 41.318 40.868C41.318 41.316 41.402 41.72 41.57 42.08C41.746 42.432 41.986 42.712 42.29 42.92C42.602 43.128 42.958 43.232 43.358 43.232ZM48.7731 43.508C48.7731 43.644 48.7251 43.76 48.6291 43.856C48.5411 43.952 48.4291 44 48.2931 44C48.1491 44 48.0331 43.952 47.9451 43.856C47.8571 43.76 47.8131 43.644 47.8131 43.508V38.18C47.8131 38.044 47.8571 37.932 47.9451 37.844C48.0411 37.748 48.1571 37.7 48.2931 37.7C48.4291 37.7 48.5411 37.748 48.6291 37.844C48.7251 37.932 48.7731 38.044 48.7731 38.18V43.508ZM48.2931 36.896C48.0931 36.896 47.9451 36.856 47.8491 36.776C47.7531 36.696 47.7051 36.572 47.7051 36.404V36.236C47.7051 36.068 47.7571 35.944 47.8611 35.864C47.9651 35.784 48.1131 35.744 48.3051 35.744C48.4971 35.744 48.6411 35.784 48.7371 35.864C48.8331 35.944 48.8811 36.068 48.8811 36.236V36.404C48.8811 36.572 48.8291 36.696 48.7251 36.776C48.6291 36.856 48.4851 36.896 48.2931 36.896ZM53.3415 37.64C53.8855 37.64 54.3135 37.752 54.6255 37.976C54.9375 38.2 55.1575 38.5 55.2855 38.876C55.4215 39.252 55.4895 39.672 55.4895 40.136V43.508C55.4895 43.644 55.4415 43.76 55.3455 43.856C55.2575 43.952 55.1455 44 55.0095 44C54.8735 44 54.7575 43.952 54.6615 43.856C54.5735 43.76 54.5295 43.644 54.5295 43.508V40.16C54.5295 39.856 54.4815 39.584 54.3855 39.344C54.2975 39.096 54.1455 38.9 53.9295 38.756C53.7215 38.604 53.4335 38.528 53.0655 38.528C52.7295 38.528 52.4215 38.604 52.1415 38.756C51.8615 38.9 51.6375 39.096 51.4695 39.344C51.3015 39.584 51.2175 39.856 51.2175 40.16V43.508C51.2175 43.644 51.1695 43.76 51.0735 43.856C50.9855 43.952 50.8735 44 50.7375 44C50.6015 44 50.4855 43.952 50.3895 43.856C50.3015 43.76 50.2575 43.644 50.2575 43.508V38.276C50.2575 38.14 50.3015 38.028 50.3895 37.94C50.4855 37.844 50.6015 37.796 50.7375 37.796C50.8815 37.796 50.9975 37.844 51.0855 37.94C51.1735 38.028 51.2175 38.14 51.2175 38.276V39.128L50.9775 39.392C51.0175 39.184 51.1095 38.976 51.2535 38.768C51.3975 38.552 51.5775 38.36 51.7935 38.192C52.0095 38.024 52.2495 37.892 52.5135 37.796C52.7775 37.692 53.0535 37.64 53.3415 37.64ZM57.9493 43.508C57.9493 43.644 57.9013 43.76 57.8053 43.856C57.7173 43.952 57.6053 44 57.4693 44C57.3253 44 57.2093 43.952 57.1213 43.856C57.0333 43.76 56.9893 43.644 56.9893 43.508V38.18C56.9893 38.044 57.0333 37.932 57.1213 37.844C57.2173 37.748 57.3333 37.7 57.4693 37.7C57.6053 37.7 57.7173 37.748 57.8053 37.844C57.9013 37.932 57.9493 38.044 57.9493 38.18V43.508ZM57.4693 36.896C57.2693 36.896 57.1213 36.856 57.0253 36.776C56.9293 36.696 56.8813 36.572 56.8813 36.404V36.236C56.8813 36.068 56.9333 35.944 57.0373 35.864C57.1413 35.784 57.2893 35.744 57.4813 35.744C57.6733 35.744 57.8173 35.784 57.9133 35.864C58.0093 35.944 58.0573 36.068 58.0573 36.236V36.404C58.0573 36.572 58.0053 36.696 57.9013 36.776C57.8053 36.856 57.6613 36.896 57.4693 36.896ZM62.5178 37.64C63.0618 37.64 63.4898 37.752 63.8018 37.976C64.1138 38.2 64.3338 38.5 64.4618 38.876C64.5978 39.252 64.6658 39.672 64.6658 40.136V43.508C64.6658 43.644 64.6178 43.76 64.5218 43.856C64.4338 43.952 64.3218 44 64.1858 44C64.0498 44 63.9338 43.952 63.8378 43.856C63.7498 43.76 63.7058 43.644 63.7058 43.508V40.16C63.7058 39.856 63.6578 39.584 63.5618 39.344C63.4738 39.096 63.3218 38.9 63.1058 38.756C62.8978 38.604 62.6098 38.528 62.2418 38.528C61.9058 38.528 61.5978 38.604 61.3178 38.756C61.0378 38.9 60.8138 39.096 60.6458 39.344C60.4778 39.584 60.3938 39.856 60.3938 40.16V43.508C60.3938 43.644 60.3458 43.76 60.2498 43.856C60.1618 43.952 60.0498 44 59.9138 44C59.7778 44 59.6618 43.952 59.5658 43.856C59.4778 43.76 59.4338 43.644 59.4338 43.508V38.276C59.4338 38.14 59.4778 38.028 59.5658 37.94C59.6618 37.844 59.7778 37.796 59.9138 37.796C60.0578 37.796 60.1738 37.844 60.2618 37.94C60.3498 38.028 60.3938 38.14 60.3938 38.276V39.128L60.1538 39.392C60.1938 39.184 60.2858 38.976 60.4298 38.768C60.5738 38.552 60.7538 38.36 60.9698 38.192C61.1858 38.024 61.4258 37.892 61.6898 37.796C61.9538 37.692 62.2298 37.64 62.5178 37.64ZM68.8056 37.64C69.1496 37.64 69.4696 37.7 69.7656 37.82C70.0616 37.932 70.3176 38.08 70.5336 38.264C70.7576 38.448 70.9296 38.64 71.0496 38.84C71.1776 39.04 71.2416 39.228 71.2416 39.404L71.0136 39.26V38.216C71.0136 38.08 71.0576 37.968 71.1456 37.88C71.2336 37.784 71.3496 37.736 71.4936 37.736C71.6296 37.736 71.7416 37.784 71.8296 37.88C71.9256 37.968 71.9736 38.08 71.9736 38.216V43.472C71.9736 44.128 71.8336 44.672 71.5536 45.104C71.2816 45.536 70.9136 45.86 70.4496 46.076C69.9856 46.292 69.4656 46.4 68.8896 46.4C68.6496 46.4 68.3856 46.368 68.0976 46.304C67.8096 46.24 67.5536 46.16 67.3296 46.064C67.1056 45.976 66.9616 45.884 66.8976 45.788C66.7776 45.708 66.7016 45.616 66.6696 45.512C66.6456 45.416 66.6656 45.324 66.7296 45.236C66.8016 45.124 66.8936 45.068 67.0056 45.068C67.1256 45.068 67.2736 45.104 67.4496 45.176C67.5216 45.2 67.6336 45.24 67.7856 45.296C67.9456 45.352 68.1216 45.4 68.3136 45.44C68.5136 45.488 68.7096 45.512 68.9016 45.512C69.5816 45.512 70.1016 45.332 70.4616 44.972C70.8296 44.62 71.0136 44.152 71.0136 43.568V42.452L71.1456 42.512C71.0976 42.736 70.9976 42.944 70.8456 43.136C70.7016 43.328 70.5216 43.5 70.3056 43.652C70.0976 43.796 69.8656 43.912 69.6096 44C69.3536 44.08 69.0936 44.12 68.8296 44.12C68.2696 44.12 67.7656 43.98 67.3176 43.7C66.8696 43.42 66.5136 43.036 66.2496 42.548C65.9936 42.06 65.8656 41.504 65.8656 40.88C65.8656 40.248 65.9936 39.688 66.2496 39.2C66.5136 38.712 66.8656 38.332 67.3056 38.06C67.7536 37.78 68.2536 37.64 68.8056 37.64ZM68.9256 38.528C68.5176 38.528 68.1496 38.632 67.8216 38.84C67.5016 39.04 67.2496 39.316 67.0656 39.668C66.8896 40.02 66.8016 40.424 66.8016 40.88C66.8016 41.32 66.8896 41.72 67.0656 42.08C67.2496 42.432 67.5016 42.712 67.8216 42.92C68.1496 43.128 68.5176 43.232 68.9256 43.232C69.3416 43.232 69.7096 43.132 70.0296 42.932C70.3496 42.724 70.6016 42.444 70.7856 42.092C70.9696 41.74 71.0616 41.336 71.0616 40.88C71.0616 40.416 70.9696 40.008 70.7856 39.656C70.6016 39.304 70.3496 39.028 70.0296 38.828C69.7096 38.628 69.3416 38.528 68.9256 38.528ZM82.8372 35.588C82.9732 35.588 83.0892 35.632 83.1852 35.72C83.2812 35.8 83.3292 35.908 83.3292 36.044C83.3292 36.108 83.3132 36.18 83.2812 36.26L80.1492 43.688C80.1012 43.792 80.0332 43.872 79.9452 43.928C79.8652 43.976 79.7772 44 79.6812 44C79.5932 43.992 79.5092 43.964 79.4292 43.916C79.3492 43.86 79.2892 43.784 79.2492 43.688L76.1292 36.272C76.1132 36.24 76.1012 36.208 76.0932 36.176C76.0852 36.136 76.0812 36.096 76.0812 36.056C76.0812 35.904 76.1332 35.788 76.2372 35.708C76.3492 35.62 76.4572 35.576 76.5612 35.576C76.7772 35.576 76.9332 35.688 77.0292 35.912L79.8972 42.752H79.6212L82.3932 35.888C82.4892 35.688 82.6372 35.588 82.8372 35.588ZM85.2845 43.508C85.2845 43.644 85.2365 43.76 85.1405 43.856C85.0525 43.952 84.9405 44 84.8045 44C84.6605 44 84.5445 43.952 84.4565 43.856C84.3685 43.76 84.3245 43.644 84.3245 43.508V38.18C84.3245 38.044 84.3685 37.932 84.4565 37.844C84.5525 37.748 84.6685 37.7 84.8045 37.7C84.9405 37.7 85.0525 37.748 85.1405 37.844C85.2365 37.932 85.2845 38.044 85.2845 38.18V43.508ZM84.8045 36.896C84.6045 36.896 84.4565 36.856 84.3605 36.776C84.2645 36.696 84.2165 36.572 84.2165 36.404V36.236C84.2165 36.068 84.2685 35.944 84.3725 35.864C84.4765 35.784 84.6245 35.744 84.8165 35.744C85.0085 35.744 85.1525 35.784 85.2485 35.864C85.3445 35.944 85.3925 36.068 85.3925 36.236V36.404C85.3925 36.572 85.3405 36.696 85.2365 36.776C85.1405 36.856 84.9965 36.896 84.8045 36.896ZM91.8809 35.12C92.0169 35.12 92.1289 35.168 92.2169 35.264C92.3129 35.352 92.3609 35.464 92.3609 35.6V43.508C92.3609 43.644 92.3129 43.76 92.2169 43.856C92.1289 43.952 92.0169 44 91.8809 44C91.7369 44 91.6209 43.952 91.5329 43.856C91.4449 43.76 91.4009 43.644 91.4009 43.508V42.368L91.6289 42.284C91.6289 42.476 91.5689 42.68 91.4489 42.896C91.3289 43.104 91.1649 43.3 90.9569 43.484C90.7489 43.668 90.5009 43.82 90.2129 43.94C89.9329 44.06 89.6289 44.12 89.3009 44.12C88.7649 44.12 88.2769 43.98 87.8369 43.7C87.4049 43.42 87.0609 43.036 86.8049 42.548C86.5569 42.06 86.4329 41.504 86.4329 40.88C86.4329 40.248 86.5569 39.688 86.8049 39.2C87.0609 38.712 87.4049 38.332 87.8369 38.06C88.2689 37.78 88.7489 37.64 89.2769 37.64C89.6129 37.64 89.9289 37.696 90.2249 37.808C90.5209 37.92 90.7769 38.072 90.9929 38.264C91.2169 38.456 91.3929 38.668 91.5209 38.9C91.6489 39.132 91.7129 39.364 91.7129 39.596L91.4009 39.524V35.6C91.4009 35.464 91.4449 35.352 91.5329 35.264C91.6209 35.168 91.7369 35.12 91.8809 35.12ZM89.4089 43.232C89.8089 43.232 90.1609 43.132 90.4649 42.932C90.7769 42.724 91.0169 42.444 91.1849 42.092C91.3609 41.732 91.4489 41.328 91.4489 40.88C91.4489 40.424 91.3609 40.02 91.1849 39.668C91.0169 39.316 90.7769 39.04 90.4649 38.84C90.1609 38.632 89.8089 38.528 89.4089 38.528C89.0169 38.528 88.6649 38.632 88.3529 38.84C88.0489 39.04 87.8089 39.316 87.6329 39.668C87.4569 40.02 87.3689 40.424 87.3689 40.88C87.3689 41.32 87.4569 41.72 87.6329 42.08C87.8089 42.432 88.0489 42.712 88.3529 42.92C88.6649 43.128 89.0169 43.232 89.4089 43.232ZM96.768 44.12C96.128 44.12 95.568 43.984 95.088 43.712C94.608 43.44 94.232 43.068 93.96 42.596C93.696 42.116 93.564 41.564 93.564 40.94C93.564 40.244 93.7 39.652 93.972 39.164C94.252 38.668 94.612 38.292 95.052 38.036C95.5 37.772 95.972 37.64 96.468 37.64C96.836 37.64 97.192 37.708 97.536 37.844C97.88 37.98 98.184 38.18 98.448 38.444C98.712 38.7 98.924 39.012 99.084 39.38C99.244 39.74 99.328 40.144 99.336 40.592C99.336 40.72 99.288 40.828 99.192 40.916C99.096 41.004 98.984 41.048 98.856 41.048H94.116L93.9 40.22H98.52L98.328 40.388V40.124C98.296 39.796 98.184 39.516 97.992 39.284C97.808 39.044 97.58 38.86 97.308 38.732C97.044 38.604 96.764 38.54 96.468 38.54C96.228 38.54 95.988 38.584 95.748 38.672C95.516 38.752 95.304 38.888 95.112 39.08C94.928 39.264 94.776 39.504 94.656 39.8C94.544 40.096 94.488 40.452 94.488 40.868C94.488 41.332 94.58 41.74 94.764 42.092C94.956 42.444 95.22 42.724 95.556 42.932C95.892 43.132 96.284 43.232 96.732 43.232C97.012 43.232 97.256 43.196 97.464 43.124C97.672 43.052 97.852 42.964 98.004 42.86C98.156 42.748 98.284 42.636 98.388 42.524C98.492 42.452 98.592 42.416 98.688 42.416C98.808 42.416 98.904 42.456 98.976 42.536C99.056 42.616 99.096 42.712 99.096 42.824C99.096 42.96 99.032 43.08 98.904 43.184C98.68 43.432 98.376 43.652 97.992 43.844C97.608 44.028 97.2 44.12 96.768 44.12ZM106.431 40.88C106.431 41.504 106.291 42.06 106.011 42.548C105.739 43.036 105.367 43.42 104.895 43.7C104.431 43.98 103.907 44.12 103.323 44.12C102.739 44.12 102.211 43.98 101.739 43.7C101.267 43.42 100.891 43.036 100.611 42.548C100.339 42.06 100.203 41.504 100.203 40.88C100.203 40.256 100.339 39.7 100.611 39.212C100.891 38.724 101.267 38.34 101.739 38.06C102.211 37.78 102.739 37.64 103.323 37.64C103.907 37.64 104.431 37.78 104.895 38.06C105.367 38.34 105.739 38.724 106.011 39.212C106.291 39.7 106.431 40.256 106.431 40.88ZM105.471 40.88C105.471 40.416 105.375 40.008 105.183 39.656C104.999 39.304 104.743 39.028 104.415 38.828C104.095 38.628 103.731 38.528 103.323 38.528C102.915 38.528 102.547 38.628 102.219 38.828C101.899 39.028 101.643 39.304 101.451 39.656C101.259 40.008 101.163 40.416 101.163 40.88C101.163 41.336 101.259 41.74 101.451 42.092C101.643 42.444 101.899 42.724 102.219 42.932C102.547 43.132 102.915 43.232 103.323 43.232C103.731 43.232 104.095 43.132 104.415 42.932C104.743 42.724 104.999 42.444 105.183 42.092C105.375 41.74 105.471 41.336 105.471 40.88Z" fill="black"/>
</svg>
