<svg width="134" height="117" viewBox="0 0 134 117" fill="none" xmlns="http://www.w3.org/2000/svg">
<rect x="35" width="64" height="64" rx="12" fill="#E94F37"/>
<rect x="62.8356" y="16" width="8.32877" height="32" rx="4.16438" fill="white"/>
<rect x="83" y="27.8357" width="8.32877" height="32" rx="4.16438" transform="rotate(90 83 27.8357)" fill="white"/>
<path d="M43.1286 83C43.0406 83 42.9726 82.976 42.9246 82.928C42.8766 82.872 42.8526 82.804 42.8526 82.724V74.888C42.8526 74.8 42.8766 74.732 42.9246 74.684C42.9726 74.628 43.0406 74.6 43.1286 74.6H46.0566C46.9606 74.6 47.6766 74.812 48.2046 75.236C48.7326 75.66 48.9966 76.288 48.9966 77.12C48.9966 77.736 48.8406 78.24 48.5286 78.632C48.2246 79.016 47.8086 79.284 47.2806 79.436L49.1286 82.628C49.1526 82.676 49.1646 82.72 49.1646 82.76C49.1646 82.824 49.1366 82.88 49.0806 82.928C49.0326 82.976 48.9766 83 48.9126 83H48.3366C48.2006 83 48.1006 82.964 48.0366 82.892C47.9726 82.82 47.9166 82.748 47.8686 82.676L46.1286 79.628H44.0286V82.724C44.0286 82.804 44.0006 82.872 43.9446 82.928C43.8966 82.976 43.8286 83 43.7406 83H43.1286ZM44.0286 78.608H46.0086C46.6086 78.608 47.0566 78.484 47.3526 78.236C47.6486 77.98 47.7966 77.604 47.7966 77.108C47.7966 76.62 47.6486 76.248 47.3526 75.992C47.0646 75.736 46.6166 75.608 46.0086 75.608H44.0286V78.608ZM52.4736 83.12C51.6496 83.12 50.9936 82.868 50.5056 82.364C50.0176 81.852 49.7496 81.156 49.7016 80.276C49.6936 80.172 49.6896 80.04 49.6896 79.88C49.6896 79.712 49.6936 79.576 49.7016 79.472C49.7336 78.904 49.8656 78.408 50.0976 77.984C50.3296 77.552 50.6456 77.22 51.0456 76.988C51.4536 76.756 51.9296 76.64 52.4736 76.64C53.0816 76.64 53.5896 76.768 53.9976 77.024C54.4136 77.28 54.7296 77.644 54.9456 78.116C55.1616 78.588 55.2696 79.14 55.2696 79.772V79.976C55.2696 80.064 55.2416 80.132 55.1856 80.18C55.1376 80.228 55.0736 80.252 54.9936 80.252H50.8416C50.8416 80.26 50.8416 80.276 50.8416 80.3C50.8416 80.324 50.8416 80.344 50.8416 80.36C50.8576 80.688 50.9296 80.996 51.0576 81.284C51.1856 81.564 51.3696 81.792 51.6096 81.968C51.8496 82.144 52.1376 82.232 52.4736 82.232C52.7616 82.232 53.0016 82.188 53.1936 82.1C53.3856 82.012 53.5416 81.916 53.6616 81.812C53.7816 81.7 53.8616 81.616 53.9016 81.56C53.9736 81.456 54.0296 81.396 54.0696 81.38C54.1096 81.356 54.1736 81.344 54.2616 81.344H54.8376C54.9176 81.344 54.9816 81.368 55.0296 81.416C55.0856 81.456 55.1096 81.516 55.1016 81.596C55.0936 81.716 55.0296 81.864 54.9096 82.04C54.7896 82.208 54.6176 82.376 54.3936 82.544C54.1696 82.712 53.8976 82.852 53.5776 82.964C53.2576 83.068 52.8896 83.12 52.4736 83.12ZM50.8416 79.424H54.1296V79.388C54.1296 79.028 54.0616 78.708 53.9256 78.428C53.7976 78.148 53.6096 77.928 53.3616 77.768C53.1136 77.6 52.8176 77.516 52.4736 77.516C52.1296 77.516 51.8336 77.6 51.5856 77.768C51.3456 77.928 51.1616 78.148 51.0336 78.428C50.9056 78.708 50.8416 79.028 50.8416 79.388V79.424ZM56.4804 83C56.4004 83 56.3324 82.976 56.2764 82.928C56.2284 82.872 56.2044 82.804 56.2044 82.724V77.036C56.2044 76.956 56.2284 76.892 56.2764 76.844C56.3324 76.788 56.4004 76.76 56.4804 76.76H57.0204C57.1004 76.76 57.1644 76.788 57.2124 76.844C57.2684 76.892 57.2964 76.956 57.2964 77.036V77.456C57.4804 77.208 57.7124 77.012 57.9924 76.868C58.2724 76.716 58.6084 76.64 59.0004 76.64C59.9044 76.632 60.5444 77 60.9204 77.744C61.1044 77.408 61.3724 77.14 61.7244 76.94C62.0764 76.74 62.4764 76.64 62.9244 76.64C63.3404 76.64 63.7164 76.736 64.0524 76.928C64.3964 77.12 64.6644 77.412 64.8564 77.804C65.0564 78.188 65.1564 78.672 65.1564 79.256V82.724C65.1564 82.804 65.1284 82.872 65.0724 82.928C65.0244 82.976 64.9604 83 64.8804 83H64.3164C64.2364 83 64.1684 82.976 64.1124 82.928C64.0644 82.872 64.0404 82.804 64.0404 82.724V79.364C64.0404 78.916 63.9764 78.564 63.8484 78.308C63.7204 78.052 63.5484 77.872 63.3324 77.768C63.1164 77.664 62.8804 77.612 62.6244 77.612C62.4164 77.612 62.2044 77.664 61.9884 77.768C61.7724 77.872 61.5924 78.052 61.4484 78.308C61.3124 78.564 61.2444 78.916 61.2444 79.364V82.724C61.2444 82.804 61.2164 82.872 61.1604 82.928C61.1124 82.976 61.0484 83 60.9684 83H60.4044C60.3244 83 60.2564 82.976 60.2004 82.928C60.1524 82.872 60.1284 82.804 60.1284 82.724V79.364C60.1284 78.916 60.0604 78.564 59.9244 78.308C59.7884 78.052 59.6124 77.872 59.3964 77.768C59.1804 77.664 58.9524 77.612 58.7124 77.612C58.5044 77.612 58.2924 77.664 58.0764 77.768C57.8604 77.872 57.6804 78.052 57.5364 78.308C57.4004 78.564 57.3324 78.912 57.3324 79.352V82.724C57.3324 82.804 57.3044 82.872 57.2484 82.928C57.2004 82.976 57.1364 83 57.0564 83H56.4804ZM66.6445 83C66.5645 83 66.4965 82.976 66.4405 82.928C66.3925 82.872 66.3685 82.804 66.3685 82.724V77.036C66.3685 76.956 66.3925 76.892 66.4405 76.844C66.4965 76.788 66.5645 76.76 66.6445 76.76H67.2205C67.3005 76.76 67.3645 76.788 67.4125 76.844C67.4605 76.892 67.4845 76.956 67.4845 77.036V82.724C67.4845 82.804 67.4605 82.872 67.4125 82.928C67.3645 82.976 67.3005 83 67.2205 83H66.6445ZM66.5485 75.596C66.4685 75.596 66.4005 75.572 66.3445 75.524C66.2965 75.468 66.2725 75.4 66.2725 75.32V74.672C66.2725 74.592 66.2965 74.528 66.3445 74.48C66.4005 74.424 66.4685 74.396 66.5485 74.396H67.3045C67.3845 74.396 67.4485 74.424 67.4965 74.48C67.5525 74.528 67.5805 74.592 67.5805 74.672V75.32C67.5805 75.4 67.5525 75.468 67.4965 75.524C67.4485 75.572 67.3845 75.596 67.3045 75.596H66.5485ZM69.1679 83C69.0879 83 69.0199 82.976 68.9639 82.928C68.9159 82.872 68.8919 82.804 68.8919 82.724V77.036C68.8919 76.956 68.9159 76.892 68.9639 76.844C69.0199 76.788 69.0879 76.76 69.1679 76.76H69.7319C69.8119 76.76 69.8759 76.788 69.9239 76.844C69.9799 76.892 70.0079 76.956 70.0079 77.036V77.564C70.2159 77.292 70.4759 77.072 70.7879 76.904C71.1079 76.728 71.5159 76.64 72.0119 76.64C72.5319 76.64 72.9719 76.756 73.3319 76.988C73.6999 77.212 73.9759 77.528 74.1599 77.936C74.3439 78.336 74.4359 78.804 74.4359 79.34V82.724C74.4359 82.804 74.4119 82.872 74.3639 82.928C74.3159 82.976 74.2519 83 74.1719 83H73.5719C73.4919 83 73.4239 82.976 73.3679 82.928C73.3199 82.872 73.2959 82.804 73.2959 82.724V79.4C73.2959 78.84 73.1599 78.404 72.8879 78.092C72.6159 77.772 72.2159 77.612 71.6879 77.612C71.1919 77.612 70.7919 77.772 70.4879 78.092C70.1919 78.404 70.0439 78.84 70.0439 79.4V82.724C70.0439 82.804 70.0159 82.872 69.9599 82.928C69.9119 82.976 69.8479 83 69.7679 83H69.1679ZM77.9492 83.12C77.5093 83.12 77.1293 83.044 76.8093 82.892C76.4893 82.732 76.2253 82.52 76.0173 82.256C75.8173 81.984 75.6653 81.676 75.5613 81.332C75.4653 80.988 75.4093 80.624 75.3933 80.24C75.3853 80.112 75.3813 79.992 75.3813 79.88C75.3813 79.768 75.3853 79.648 75.3933 79.52C75.4093 79.144 75.4653 78.784 75.5613 78.44C75.6653 78.096 75.8173 77.788 76.0173 77.516C76.2253 77.244 76.4893 77.032 76.8093 76.88C77.1293 76.72 77.5093 76.64 77.9492 76.64C78.4213 76.64 78.8133 76.724 79.1253 76.892C79.4373 77.06 79.6933 77.268 79.8933 77.516V74.756C79.8933 74.676 79.9173 74.612 79.9653 74.564C80.0213 74.508 80.0893 74.48 80.1693 74.48H80.7453C80.8253 74.48 80.8893 74.508 80.9373 74.564C80.9933 74.612 81.0213 74.676 81.0213 74.756V82.724C81.0213 82.804 80.9933 82.872 80.9373 82.928C80.8893 82.976 80.8253 83 80.7453 83H80.2053C80.1173 83 80.0493 82.976 80.0013 82.928C79.9533 82.872 79.9293 82.804 79.9293 82.724V82.22C79.7293 82.476 79.4693 82.692 79.1493 82.868C78.8293 83.036 78.4293 83.12 77.9492 83.12ZM78.2013 82.148C78.6013 82.148 78.9213 82.056 79.1613 81.872C79.4013 81.688 79.5813 81.456 79.7013 81.176C79.8213 80.888 79.8853 80.596 79.8933 80.3C79.9013 80.172 79.9053 80.02 79.9053 79.844C79.9053 79.66 79.9013 79.504 79.8933 79.376C79.8853 79.096 79.8173 78.82 79.6893 78.548C79.5693 78.276 79.3853 78.052 79.1373 77.876C78.8973 77.7 78.5853 77.612 78.2013 77.612C77.7933 77.612 77.4693 77.704 77.2293 77.888C76.9893 78.064 76.8173 78.3 76.7133 78.596C76.6093 78.884 76.5493 79.196 76.5333 79.532C76.5253 79.764 76.5253 79.996 76.5333 80.228C76.5493 80.564 76.6093 80.88 76.7133 81.176C76.8173 81.464 76.9893 81.7 77.2293 81.884C77.4693 82.06 77.7933 82.148 78.2013 82.148ZM84.79 83.12C83.966 83.12 83.31 82.868 82.822 82.364C82.334 81.852 82.066 81.156 82.018 80.276C82.01 80.172 82.006 80.04 82.006 79.88C82.006 79.712 82.01 79.576 82.018 79.472C82.05 78.904 82.182 78.408 82.414 77.984C82.646 77.552 82.962 77.22 83.362 76.988C83.77 76.756 84.246 76.64 84.79 76.64C85.398 76.64 85.906 76.768 86.314 77.024C86.73 77.28 87.046 77.644 87.262 78.116C87.478 78.588 87.586 79.14 87.586 79.772V79.976C87.586 80.064 87.558 80.132 87.502 80.18C87.454 80.228 87.39 80.252 87.31 80.252H83.158C83.158 80.26 83.158 80.276 83.158 80.3C83.158 80.324 83.158 80.344 83.158 80.36C83.174 80.688 83.246 80.996 83.374 81.284C83.502 81.564 83.686 81.792 83.926 81.968C84.166 82.144 84.454 82.232 84.79 82.232C85.078 82.232 85.318 82.188 85.51 82.1C85.702 82.012 85.858 81.916 85.978 81.812C86.098 81.7 86.178 81.616 86.218 81.56C86.29 81.456 86.346 81.396 86.386 81.38C86.426 81.356 86.49 81.344 86.578 81.344H87.154C87.234 81.344 87.298 81.368 87.346 81.416C87.402 81.456 87.426 81.516 87.418 81.596C87.41 81.716 87.346 81.864 87.226 82.04C87.106 82.208 86.934 82.376 86.71 82.544C86.486 82.712 86.214 82.852 85.894 82.964C85.574 83.068 85.206 83.12 84.79 83.12ZM83.158 79.424H86.446V79.388C86.446 79.028 86.378 78.708 86.242 78.428C86.114 78.148 85.926 77.928 85.678 77.768C85.43 77.6 85.134 77.516 84.79 77.516C84.446 77.516 84.15 77.6 83.902 77.768C83.662 77.928 83.478 78.148 83.35 78.428C83.222 78.708 83.158 79.028 83.158 79.388V79.424ZM88.7968 83C88.7168 83 88.6488 82.976 88.5928 82.928C88.5448 82.872 88.5208 82.804 88.5208 82.724V77.048C88.5208 76.968 88.5448 76.9 88.5928 76.844C88.6488 76.788 88.7168 76.76 88.7968 76.76H89.3488C89.4288 76.76 89.4968 76.788 89.5528 76.844C89.6088 76.9 89.6368 76.968 89.6368 77.048V77.576C89.7968 77.304 90.0168 77.1 90.2968 76.964C90.5768 76.828 90.9128 76.76 91.3048 76.76H91.7848C91.8648 76.76 91.9288 76.788 91.9768 76.844C92.0248 76.892 92.0488 76.956 92.0488 77.036V77.528C92.0488 77.608 92.0248 77.672 91.9768 77.72C91.9288 77.768 91.8648 77.792 91.7848 77.792H91.0648C90.6328 77.792 90.2928 77.92 90.0448 78.176C89.7968 78.424 89.6728 78.764 89.6728 79.196V82.724C89.6728 82.804 89.6448 82.872 89.5888 82.928C89.5328 82.976 89.4648 83 89.3848 83H88.7968Z" fill="#5D5C5D"/>
</svg>
