<svg width="125" height="46" viewBox="0 0 125 46" fill="none" xmlns="http://www.w3.org/2000/svg">
<mask id="path-1-outside-1_61_1052" maskUnits="userSpaceOnUse" x="53" y="13" width="20" height="20" fill="black">
<rect fill="white" x="53" y="13" width="20" height="20"/>
<path d="M71.5576 17.6072L69.7557 17.3069C69.3991 16.4229 68.576 15.7849 67.6122 15.6778L66.9408 15.6032L65.882 15.4856C65.8626 15.4834 65.8431 15.4824 65.8235 15.4824C64.9478 15.4824 64.2353 16.1948 64.2353 17.0706V18.4824C64.2353 18.6737 64.2693 18.8573 64.3316 19.0273C64.2229 19.2889 64.063 19.5217 63.8648 19.7143L56.618 14.1106C56.5252 14.0389 56.4113 14 56.2941 14H54.5294C54.237 14 54 14.237 54 14.5294C54 14.8218 54.237 15.0588 54.5294 15.0588H56.1133L62.8364 20.2575C62.786 20.2677 62.7351 20.2761 62.6837 20.2825L58.3488 20.8244C58.1918 20.844 58.0385 20.8743 57.8894 20.9146L57.2604 20.5515C56.5946 20.167 56.1676 19.4796 56.1181 18.7124C56.094 18.3392 55.8332 18.0313 55.4691 17.9462C55.105 17.861 54.7347 18.0215 54.5478 18.3453C54.5472 18.3462 54.5467 18.3472 54.5462 18.3481C54.0303 19.243 53.8734 20.29 54.1045 21.2963C54.3062 22.1745 54.7864 22.9525 55.4715 23.522C55.4324 23.7264 55.4118 23.9367 55.4118 24.1514V26.4143L54.116 28.034C54.0409 28.1278 54 28.2445 54 28.3647V31.5412C54 31.8336 54.237 32.0706 54.5294 32.0706H56.6471C56.9394 32.0706 57.1765 31.8336 57.1765 31.5412V29.4854C58.4268 29.0828 59.2941 27.9206 59.2941 26.5708V26.3634L60.1788 26.7655C60.9217 27.1032 61.6874 27.3609 62.4706 27.5391V31.5412C62.4706 31.8336 62.7076 32.0706 63 32.0706H65.1176H67.2353C67.5277 32.0706 67.7647 31.8336 67.7647 31.5412V26.5843C68.8476 26.0088 69.5294 24.8894 69.5294 23.6406V20.7765H70.0588C71.1292 20.7765 72 19.9057 72 18.8353V18.1294C72 17.8706 71.8129 17.6497 71.5576 17.6072V17.6072ZM65.2941 17.0706C65.2941 16.7868 65.5185 16.5545 65.7992 16.5417L66.3529 16.6033V18.4824C66.3529 18.7743 66.1154 19.0118 65.8235 19.0118C65.5316 19.0118 65.2941 18.7743 65.2941 18.4824V17.0706ZM55.1902 19.5106C55.4299 20.3284 55.9752 21.032 56.731 21.4684L56.7458 21.477C56.3959 21.7419 56.1006 22.0729 55.8774 22.4506C55.1463 21.6662 54.8829 20.5361 55.1902 19.5106V19.5106ZM63.5294 27.7298C63.8796 27.7765 64.2325 27.8083 64.5882 27.8238V31.0118H63.5294V27.7298ZM67.0387 25.7555C66.8377 25.8359 66.7059 26.0306 66.7059 26.2471V31.0118H65.6471V27.3059C65.6471 27.1868 65.6072 27.0772 65.5409 26.9888L65.5412 26.9882L65.3294 26.7059C64.8515 26.0686 64.5882 25.2789 64.5882 24.4824C64.5882 24.19 64.3512 23.9529 64.0588 23.9529C63.7664 23.9529 63.5294 24.19 63.5294 24.4824C63.5294 25.2639 63.727 26.0399 64.0934 26.728C62.8926 26.6157 61.727 26.3061 60.617 25.8016L58.9838 25.0592C58.8199 24.9847 58.6294 24.9986 58.4781 25.0961C58.3267 25.1935 58.2353 25.3612 58.2353 25.5412V26.5708C58.2353 27.5549 57.5308 28.3866 56.56 28.5484C56.3047 28.5909 56.1176 28.8118 56.1176 29.0706V31.0118H55.0588V28.5504L56.3546 26.9307C56.4297 26.8369 56.4706 26.7202 56.4706 26.6V24.1514C56.4706 22.9968 57.3345 22.0182 58.4801 21.875L62.815 21.3331C63.1679 21.289 63.5041 21.1853 63.8125 21.0322C65.0572 22.043 66.6146 22.5906 68.2063 22.5906C68.2943 22.5906 68.3824 22.5883 68.4706 22.5849V23.6405C68.4706 24.5774 67.9085 25.4076 67.0387 25.7555ZM70.9412 18.8353C70.9412 19.3218 70.5454 19.7176 70.0588 19.7176H69C68.7076 19.7176 68.4706 19.9547 68.4706 20.2471V21.5258C67.1207 21.5865 65.7844 21.1801 64.6965 20.3777C64.839 20.2269 64.9669 20.0617 65.0776 19.884C65.3002 20.0029 65.5541 20.0706 65.8235 20.0706C66.6993 20.0706 67.4118 19.3581 67.4118 18.4824V16.7209L67.4952 16.7302C68.1415 16.802 68.6816 17.2741 68.8393 17.9049C68.8904 18.1094 69.058 18.2641 69.2659 18.2987L70.9412 18.5779V18.8353Z"/>
</mask>
<path d="M71.5576 17.6072L69.7557 17.3069C69.3991 16.4229 68.576 15.7849 67.6122 15.6778L66.9408 15.6032L65.882 15.4856C65.8626 15.4834 65.8431 15.4824 65.8235 15.4824C64.9478 15.4824 64.2353 16.1948 64.2353 17.0706V18.4824C64.2353 18.6737 64.2693 18.8573 64.3316 19.0273C64.2229 19.2889 64.063 19.5217 63.8648 19.7143L56.618 14.1106C56.5252 14.0389 56.4113 14 56.2941 14H54.5294C54.237 14 54 14.237 54 14.5294C54 14.8218 54.237 15.0588 54.5294 15.0588H56.1133L62.8364 20.2575C62.786 20.2677 62.7351 20.2761 62.6837 20.2825L58.3488 20.8244C58.1918 20.844 58.0385 20.8743 57.8894 20.9146L57.2604 20.5515C56.5946 20.167 56.1676 19.4796 56.1181 18.7124C56.094 18.3392 55.8332 18.0313 55.4691 17.9462C55.105 17.861 54.7347 18.0215 54.5478 18.3453C54.5472 18.3462 54.5467 18.3472 54.5462 18.3481C54.0303 19.243 53.8734 20.29 54.1045 21.2963C54.3062 22.1745 54.7864 22.9525 55.4715 23.522C55.4324 23.7264 55.4118 23.9367 55.4118 24.1514V26.4143L54.116 28.034C54.0409 28.1278 54 28.2445 54 28.3647V31.5412C54 31.8336 54.237 32.0706 54.5294 32.0706H56.6471C56.9394 32.0706 57.1765 31.8336 57.1765 31.5412V29.4854C58.4268 29.0828 59.2941 27.9206 59.2941 26.5708V26.3634L60.1788 26.7655C60.9217 27.1032 61.6874 27.3609 62.4706 27.5391V31.5412C62.4706 31.8336 62.7076 32.0706 63 32.0706H65.1176H67.2353C67.5277 32.0706 67.7647 31.8336 67.7647 31.5412V26.5843C68.8476 26.0088 69.5294 24.8894 69.5294 23.6406V20.7765H70.0588C71.1292 20.7765 72 19.9057 72 18.8353V18.1294C72 17.8706 71.8129 17.6497 71.5576 17.6072V17.6072ZM65.2941 17.0706C65.2941 16.7868 65.5185 16.5545 65.7992 16.5417L66.3529 16.6033V18.4824C66.3529 18.7743 66.1154 19.0118 65.8235 19.0118C65.5316 19.0118 65.2941 18.7743 65.2941 18.4824V17.0706ZM55.1902 19.5106C55.4299 20.3284 55.9752 21.032 56.731 21.4684L56.7458 21.477C56.3959 21.7419 56.1006 22.0729 55.8774 22.4506C55.1463 21.6662 54.8829 20.5361 55.1902 19.5106V19.5106ZM63.5294 27.7298C63.8796 27.7765 64.2325 27.8083 64.5882 27.8238V31.0118H63.5294V27.7298ZM67.0387 25.7555C66.8377 25.8359 66.7059 26.0306 66.7059 26.2471V31.0118H65.6471V27.3059C65.6471 27.1868 65.6072 27.0772 65.5409 26.9888L65.5412 26.9882L65.3294 26.7059C64.8515 26.0686 64.5882 25.2789 64.5882 24.4824C64.5882 24.19 64.3512 23.9529 64.0588 23.9529C63.7664 23.9529 63.5294 24.19 63.5294 24.4824C63.5294 25.2639 63.727 26.0399 64.0934 26.728C62.8926 26.6157 61.727 26.3061 60.617 25.8016L58.9838 25.0592C58.8199 24.9847 58.6294 24.9986 58.4781 25.0961C58.3267 25.1935 58.2353 25.3612 58.2353 25.5412V26.5708C58.2353 27.5549 57.5308 28.3866 56.56 28.5484C56.3047 28.5909 56.1176 28.8118 56.1176 29.0706V31.0118H55.0588V28.5504L56.3546 26.9307C56.4297 26.8369 56.4706 26.7202 56.4706 26.6V24.1514C56.4706 22.9968 57.3345 22.0182 58.4801 21.875L62.815 21.3331C63.1679 21.289 63.5041 21.1853 63.8125 21.0322C65.0572 22.043 66.6146 22.5906 68.2063 22.5906C68.2943 22.5906 68.3824 22.5883 68.4706 22.5849V23.6405C68.4706 24.5774 67.9085 25.4076 67.0387 25.7555ZM70.9412 18.8353C70.9412 19.3218 70.5454 19.7176 70.0588 19.7176H69C68.7076 19.7176 68.4706 19.9547 68.4706 20.2471V21.5258C67.1207 21.5865 65.7844 21.1801 64.6965 20.3777C64.839 20.2269 64.9669 20.0617 65.0776 19.884C65.3002 20.0029 65.5541 20.0706 65.8235 20.0706C66.6993 20.0706 67.4118 19.3581 67.4118 18.4824V16.7209L67.4952 16.7302C68.1415 16.802 68.6816 17.2741 68.8393 17.9049C68.8904 18.1094 69.058 18.2641 69.2659 18.2987L70.9412 18.5779V18.8353Z" fill="#1C0A0A"/>
<path d="M71.5576 17.6072L69.7557 17.3069C69.3991 16.4229 68.576 15.7849 67.6122 15.6778L66.9408 15.6032L65.882 15.4856C65.8626 15.4834 65.8431 15.4824 65.8235 15.4824C64.9478 15.4824 64.2353 16.1948 64.2353 17.0706V18.4824C64.2353 18.6737 64.2693 18.8573 64.3316 19.0273C64.2229 19.2889 64.063 19.5217 63.8648 19.7143L56.618 14.1106C56.5252 14.0389 56.4113 14 56.2941 14H54.5294C54.237 14 54 14.237 54 14.5294C54 14.8218 54.237 15.0588 54.5294 15.0588H56.1133L62.8364 20.2575C62.786 20.2677 62.7351 20.2761 62.6837 20.2825L58.3488 20.8244C58.1918 20.844 58.0385 20.8743 57.8894 20.9146L57.2604 20.5515C56.5946 20.167 56.1676 19.4796 56.1181 18.7124C56.094 18.3392 55.8332 18.0313 55.4691 17.9462C55.105 17.861 54.7347 18.0215 54.5478 18.3453C54.5472 18.3462 54.5467 18.3472 54.5462 18.3481C54.0303 19.243 53.8734 20.29 54.1045 21.2963C54.3062 22.1745 54.7864 22.9525 55.4715 23.522C55.4324 23.7264 55.4118 23.9367 55.4118 24.1514V26.4143L54.116 28.034C54.0409 28.1278 54 28.2445 54 28.3647V31.5412C54 31.8336 54.237 32.0706 54.5294 32.0706H56.6471C56.9394 32.0706 57.1765 31.8336 57.1765 31.5412V29.4854C58.4268 29.0828 59.2941 27.9206 59.2941 26.5708V26.3634L60.1788 26.7655C60.9217 27.1032 61.6874 27.3609 62.4706 27.5391V31.5412C62.4706 31.8336 62.7076 32.0706 63 32.0706H65.1176H67.2353C67.5277 32.0706 67.7647 31.8336 67.7647 31.5412V26.5843C68.8476 26.0088 69.5294 24.8894 69.5294 23.6406V20.7765H70.0588C71.1292 20.7765 72 19.9057 72 18.8353V18.1294C72 17.8706 71.8129 17.6497 71.5576 17.6072V17.6072ZM65.2941 17.0706C65.2941 16.7868 65.5185 16.5545 65.7992 16.5417L66.3529 16.6033V18.4824C66.3529 18.7743 66.1154 19.0118 65.8235 19.0118C65.5316 19.0118 65.2941 18.7743 65.2941 18.4824V17.0706ZM55.1902 19.5106C55.4299 20.3284 55.9752 21.032 56.731 21.4684L56.7458 21.477C56.3959 21.7419 56.1006 22.0729 55.8774 22.4506C55.1463 21.6662 54.8829 20.5361 55.1902 19.5106V19.5106ZM63.5294 27.7298C63.8796 27.7765 64.2325 27.8083 64.5882 27.8238V31.0118H63.5294V27.7298ZM67.0387 25.7555C66.8377 25.8359 66.7059 26.0306 66.7059 26.2471V31.0118H65.6471V27.3059C65.6471 27.1868 65.6072 27.0772 65.5409 26.9888L65.5412 26.9882L65.3294 26.7059C64.8515 26.0686 64.5882 25.2789 64.5882 24.4824C64.5882 24.19 64.3512 23.9529 64.0588 23.9529C63.7664 23.9529 63.5294 24.19 63.5294 24.4824C63.5294 25.2639 63.727 26.0399 64.0934 26.728C62.8926 26.6157 61.727 26.3061 60.617 25.8016L58.9838 25.0592C58.8199 24.9847 58.6294 24.9986 58.4781 25.0961C58.3267 25.1935 58.2353 25.3612 58.2353 25.5412V26.5708C58.2353 27.5549 57.5308 28.3866 56.56 28.5484C56.3047 28.5909 56.1176 28.8118 56.1176 29.0706V31.0118H55.0588V28.5504L56.3546 26.9307C56.4297 26.8369 56.4706 26.7202 56.4706 26.6V24.1514C56.4706 22.9968 57.3345 22.0182 58.4801 21.875L62.815 21.3331C63.1679 21.289 63.5041 21.1853 63.8125 21.0322C65.0572 22.043 66.6146 22.5906 68.2063 22.5906C68.2943 22.5906 68.3824 22.5883 68.4706 22.5849V23.6405C68.4706 24.5774 67.9085 25.4076 67.0387 25.7555ZM70.9412 18.8353C70.9412 19.3218 70.5454 19.7176 70.0588 19.7176H69C68.7076 19.7176 68.4706 19.9547 68.4706 20.2471V21.5258C67.1207 21.5865 65.7844 21.1801 64.6965 20.3777C64.839 20.2269 64.9669 20.0617 65.0776 19.884C65.3002 20.0029 65.5541 20.0706 65.8235 20.0706C66.6993 20.0706 67.4118 19.3581 67.4118 18.4824V16.7209L67.4952 16.7302C68.1415 16.802 68.6816 17.2741 68.8393 17.9049C68.8904 18.1094 69.058 18.2641 69.2659 18.2987L70.9412 18.5779V18.8353Z" stroke="#A0A0A0" stroke-width="0.2" mask="url(#path-1-outside-1_61_1052)"/>
<path d="M53.8179 34.6C54.4019 34.6 54.9139 34.712 55.3539 34.936C55.8019 35.152 56.1739 35.456 56.4699 35.848C56.7659 36.24 56.9859 36.692 57.1299 37.204C57.2819 37.708 57.3579 38.24 57.3579 38.8C57.3579 39.568 57.2259 40.272 56.9619 40.912C56.6979 41.544 56.3059 42.052 55.7859 42.436C55.2659 42.812 54.6099 43 53.8179 43H50.8179C50.6819 43 50.5659 42.952 50.4699 42.856C50.3819 42.76 50.3379 42.644 50.3379 42.508V35.08C50.3379 34.944 50.3819 34.832 50.4699 34.744C50.5659 34.648 50.6819 34.6 50.8179 34.6H53.8179ZM53.6979 42.064C54.3139 42.064 54.8139 41.916 55.1979 41.62C55.5899 41.324 55.8739 40.928 56.0499 40.432C56.2339 39.936 56.3259 39.392 56.3259 38.8C56.3259 38.368 56.2739 37.956 56.1699 37.564C56.0739 37.164 55.9179 36.812 55.7019 36.508C55.4939 36.204 55.2219 35.964 54.8859 35.788C54.5579 35.612 54.1619 35.524 53.6979 35.524H51.2379L51.3339 35.428V42.184L51.2619 42.064H53.6979ZM64.5289 39.88C64.5289 40.504 64.3889 41.06 64.1089 41.548C63.8369 42.036 63.4649 42.42 62.9929 42.7C62.5289 42.98 62.0049 43.12 61.4209 43.12C60.8369 43.12 60.3089 42.98 59.8369 42.7C59.3649 42.42 58.9889 42.036 58.7089 41.548C58.4369 41.06 58.3009 40.504 58.3009 39.88C58.3009 39.256 58.4369 38.7 58.7089 38.212C58.9889 37.724 59.3649 37.34 59.8369 37.06C60.3089 36.78 60.8369 36.64 61.4209 36.64C62.0049 36.64 62.5289 36.78 62.9929 37.06C63.4649 37.34 63.8369 37.724 64.1089 38.212C64.3889 38.7 64.5289 39.256 64.5289 39.88ZM63.5689 39.88C63.5689 39.416 63.4729 39.008 63.2809 38.656C63.0969 38.304 62.8409 38.028 62.5129 37.828C62.1929 37.628 61.8289 37.528 61.4209 37.528C61.0129 37.528 60.6449 37.628 60.3169 37.828C59.9969 38.028 59.7409 38.304 59.5489 38.656C59.3569 39.008 59.2609 39.416 59.2609 39.88C59.2609 40.336 59.3569 40.74 59.5489 41.092C59.7409 41.444 59.9969 41.724 60.3169 41.932C60.6449 42.132 61.0129 42.232 61.4209 42.232C61.8289 42.232 62.1929 42.132 62.5129 41.932C62.8409 41.724 63.0969 41.444 63.2809 41.092C63.4729 40.74 63.5689 40.336 63.5689 39.88ZM68.3368 36.64C68.6808 36.64 69.0008 36.7 69.2968 36.82C69.5928 36.932 69.8488 37.08 70.0648 37.264C70.2888 37.448 70.4608 37.64 70.5808 37.84C70.7088 38.04 70.7728 38.228 70.7728 38.404L70.5448 38.26V37.216C70.5448 37.08 70.5888 36.968 70.6768 36.88C70.7648 36.784 70.8808 36.736 71.0248 36.736C71.1608 36.736 71.2728 36.784 71.3608 36.88C71.4568 36.968 71.5048 37.08 71.5048 37.216V42.472C71.5048 43.128 71.3648 43.672 71.0848 44.104C70.8128 44.536 70.4448 44.86 69.9808 45.076C69.5168 45.292 68.9968 45.4 68.4208 45.4C68.1808 45.4 67.9168 45.368 67.6288 45.304C67.3408 45.24 67.0848 45.16 66.8608 45.064C66.6368 44.976 66.4928 44.884 66.4288 44.788C66.3088 44.708 66.2328 44.616 66.2008 44.512C66.1768 44.416 66.1968 44.324 66.2608 44.236C66.3328 44.124 66.4248 44.068 66.5368 44.068C66.6568 44.068 66.8048 44.104 66.9808 44.176C67.0528 44.2 67.1648 44.24 67.3168 44.296C67.4768 44.352 67.6528 44.4 67.8448 44.44C68.0448 44.488 68.2408 44.512 68.4328 44.512C69.1128 44.512 69.6328 44.332 69.9928 43.972C70.3608 43.62 70.5448 43.152 70.5448 42.568V41.452L70.6768 41.512C70.6288 41.736 70.5288 41.944 70.3768 42.136C70.2328 42.328 70.0528 42.5 69.8368 42.652C69.6288 42.796 69.3968 42.912 69.1408 43C68.8848 43.08 68.6248 43.12 68.3608 43.12C67.8008 43.12 67.2968 42.98 66.8488 42.7C66.4008 42.42 66.0448 42.036 65.7808 41.548C65.5248 41.06 65.3968 40.504 65.3968 39.88C65.3968 39.248 65.5248 38.688 65.7808 38.2C66.0448 37.712 66.3968 37.332 66.8368 37.06C67.2848 36.78 67.7848 36.64 68.3368 36.64ZM68.4568 37.528C68.0488 37.528 67.6808 37.632 67.3528 37.84C67.0328 38.04 66.7808 38.316 66.5968 38.668C66.4208 39.02 66.3328 39.424 66.3328 39.88C66.3328 40.32 66.4208 40.72 66.5968 41.08C66.7808 41.432 67.0328 41.712 67.3528 41.92C67.6808 42.128 68.0488 42.232 68.4568 42.232C68.8728 42.232 69.2408 42.132 69.5608 41.932C69.8808 41.724 70.1328 41.444 70.3168 41.092C70.5008 40.74 70.5928 40.336 70.5928 39.88C70.5928 39.416 70.5008 39.008 70.3168 38.656C70.1328 38.304 69.8808 38.028 69.5608 37.828C69.2408 37.628 68.8728 37.528 68.4568 37.528ZM72.5745 42.016C72.5025 41.912 72.4705 41.804 72.4785 41.692C72.4865 41.572 72.5545 41.468 72.6825 41.38C72.7625 41.324 72.8545 41.3 72.9585 41.308C73.0705 41.316 73.1705 41.368 73.2585 41.464C73.4825 41.728 73.7385 41.94 74.0265 42.1C74.3145 42.252 74.6665 42.328 75.0825 42.328C75.2745 42.32 75.4665 42.288 75.6585 42.232C75.8505 42.176 76.0105 42.08 76.1385 41.944C76.2745 41.8 76.3425 41.612 76.3425 41.38C76.3425 41.156 76.2745 40.98 76.1385 40.852C76.0025 40.716 75.8265 40.608 75.6105 40.528C75.3945 40.44 75.1585 40.364 74.9025 40.3C74.6385 40.228 74.3785 40.148 74.1225 40.06C73.8665 39.964 73.6345 39.848 73.4265 39.712C73.2265 39.568 73.0625 39.392 72.9345 39.184C72.8145 38.968 72.7545 38.708 72.7545 38.404C72.7545 38.044 72.8505 37.732 73.0425 37.468C73.2425 37.204 73.5065 37 73.8345 36.856C74.1705 36.712 74.5345 36.64 74.9265 36.64C75.1505 36.64 75.3825 36.668 75.6225 36.724C75.8705 36.772 76.1105 36.86 76.3425 36.988C76.5745 37.108 76.7785 37.276 76.9545 37.492C77.0265 37.572 77.0665 37.672 77.0745 37.792C77.0825 37.912 77.0305 38.02 76.9185 38.116C76.8305 38.18 76.7305 38.208 76.6185 38.2C76.5145 38.192 76.4265 38.152 76.3545 38.08C76.1865 37.88 75.9745 37.728 75.7185 37.624C75.4705 37.512 75.1945 37.456 74.8905 37.456C74.6985 37.456 74.5105 37.484 74.3265 37.54C74.1425 37.596 73.9865 37.692 73.8585 37.828C73.7385 37.956 73.6785 38.136 73.6785 38.368C73.6865 38.584 73.7585 38.76 73.8945 38.896C74.0305 39.032 74.2145 39.144 74.4465 39.232C74.6785 39.312 74.9345 39.392 75.2145 39.472C75.4705 39.536 75.7145 39.612 75.9465 39.7C76.1865 39.78 76.4025 39.888 76.5945 40.024C76.7865 40.16 76.9385 40.336 77.0505 40.552C77.1625 40.76 77.2185 41.024 77.2185 41.344C77.2185 41.712 77.1145 42.032 76.9065 42.304C76.6985 42.568 76.4225 42.772 76.0785 42.916C75.7425 43.052 75.3785 43.12 74.9865 43.12C74.5465 43.12 74.1105 43.036 73.6785 42.868C73.2545 42.7 72.8865 42.416 72.5745 42.016Z" fill="#212529"/>
</svg>
